<svg width="83" height="84" viewBox="0 0 83 84" fill="none" xmlns="http://www.w3.org/2000/svg">
<g clip-path="url(#clip0_215_5061)">
<path d="M41.5 83.9785C64.4198 83.9785 83 65.3983 83 42.4785C83 19.5587 64.4198 0.978516 41.5 0.978516C18.5802 0.978516 0 19.5587 0 42.4785C0 65.3983 18.5802 83.9785 41.5 83.9785Z" fill="url(#paint0_linear_215_5061)"/>
<path d="M69.4277 30.3495C67.2551 30.3495 65.4876 28.582 65.4876 26.4094V24.6711H17.5124V26.4094C17.5124 28.582 15.7449 30.3495 13.5723 30.3495H11.834V54.6076H13.5723C15.7449 54.6076 17.5124 56.375 17.5124 58.5476V60.2859H65.4878V58.5476C65.4878 56.375 67.2553 54.6076 69.4279 54.6076H71.166V30.3495H69.4277Z" fill="#FDDAC5"/>
<path d="M69.4277 30.3495C67.2551 30.3495 65.4876 28.582 65.4876 26.4094V24.6711H41.5V60.2858H65.4878V58.5475C65.4878 56.3749 67.2553 54.6074 69.4279 54.6074H71.166V30.3495H69.4277Z" fill="#FDDAC5"/>
<path d="M28.2188 37.5261C28.2188 33.8044 30.6199 31.6733 33.8015 31.6733C36.983 31.6733 39.3842 33.8044 39.3842 37.5261C39.3842 41.278 36.983 43.3789 33.8015 43.3789C30.6199 43.3789 28.2188 41.2778 28.2188 37.5261ZM46.1372 31.9734H51.2096L36.8627 52.9834H31.7903L46.1372 31.9734ZM35.122 37.5261C35.122 35.5152 34.4617 34.9149 33.8013 34.9149C33.141 34.9149 32.4806 35.5152 32.4806 37.5261C32.4806 39.5371 33.1409 40.1374 33.8013 40.1374C34.4617 40.1374 35.122 39.5371 35.122 37.5261ZM43.6161 47.4309C43.6161 43.7091 46.0172 41.5781 49.1988 41.5781C52.3803 41.5781 54.7815 43.709 54.7815 47.4309C54.7815 51.1827 52.3803 53.2837 49.1988 53.2837C46.0172 53.2837 43.6161 51.1826 43.6161 47.4309ZM50.5193 47.4309C50.5193 45.4199 49.8591 44.8196 49.1986 44.8196C48.5383 44.8196 47.8779 45.4199 47.8779 47.4309C47.8779 49.4418 48.5382 50.0421 49.1986 50.0421C49.8591 50.0421 50.5193 49.4418 50.5193 47.4309Z" fill="#5A2E3F"/>
<path d="M17.087 40.7407H11.834V44.2172H17.087V40.7407Z" fill="white"/>
<path d="M71.1671 40.7407H65.9141V44.2172H71.1671V40.7407Z" fill="white"/>
<path d="M41.5 46.1925L51.2097 31.9734H46.1371L41.5 38.7643V46.1925Z" fill="#5A2E3F"/>
<path d="M49.1987 41.5781C46.0171 41.5781 43.616 43.7091 43.616 47.4309C43.616 51.1828 46.0171 53.2837 49.1987 53.2837C52.3802 53.2837 54.7814 51.1828 54.7814 47.4309C54.7812 43.7091 52.3801 41.5781 49.1987 41.5781ZM49.1987 50.0422C48.5384 50.0422 47.878 49.4419 47.878 47.4309C47.878 45.42 48.5383 44.8197 49.1987 44.8197C49.859 44.8197 50.5194 45.42 50.5194 47.4309C50.5192 49.4419 49.859 50.0422 49.1987 50.0422Z" fill="#5A2E3F"/>
</g>
<defs>
<linearGradient id="paint0_linear_215_5061" x1="83" y1="83.9785" x2="0" y2="0.978516" gradientUnits="userSpaceOnUse">
<stop stop-color="#9B011D"/>
<stop offset="0.995" stop-color="#FF8740"/>
</linearGradient>
<clipPath id="clip0_215_5061">
<rect width="83" height="83" fill="white" transform="translate(0 0.978516)"/>
</clipPath>
</defs>
</svg>
